<svg width="753" height="330" viewBox="0 0 753 330" fill="none" xmlns="http://www.w3.org/2000/svg">
<path d="M106.943 229C95.1563 229 85.883 226.14 79.123 220.42C72.363 214.7 68.983 204.387 68.983 189.48V118.5H46.623V100.04H68.983L71.843 69.1H90.823V100.04H128.783V118.5H90.823V189.48C90.823 197.627 92.4696 203.173 95.763 206.12C99.0563 208.893 104.863 210.28 113.183 210.28H126.703V229H106.943ZM169.79 71.44C165.457 71.44 161.817 70.0533 158.87 67.28C156.097 64.3333 154.71 60.6933 154.71 56.36C154.71 52.2 156.097 48.7333 158.87 45.96C161.817 43.1867 165.457 41.8 169.79 41.8C173.95 41.8 177.503 43.1867 180.45 45.96C183.397 48.7333 184.87 52.2 184.87 56.36C184.87 60.6933 183.397 64.3333 180.45 67.28C177.503 70.0533 173.95 71.44 169.79 71.44ZM158.87 229V100.04H180.71V229H158.87ZM278.017 232.12C265.71 232.12 254.617 229.347 244.737 223.8C235.03 218.08 227.317 210.193 221.597 200.14C216.05 189.913 213.277 178.04 213.277 164.52C213.277 151 216.05 139.213 221.597 129.16C227.317 118.933 235.03 111.047 244.737 105.5C254.617 99.78 265.71 96.92 278.017 96.92C293.27 96.92 306.097 100.907 316.497 108.88C327.07 116.853 333.744 127.513 336.517 140.86H314.157C312.424 132.887 308.177 126.733 301.417 122.4C294.657 117.893 286.77 115.64 277.757 115.64C270.477 115.64 263.63 117.46 257.217 121.1C250.804 124.74 245.604 130.2 241.617 137.48C237.63 144.76 235.637 153.773 235.637 164.52C235.637 175.267 237.63 184.28 241.617 191.56C245.604 198.84 250.804 204.387 257.217 208.2C263.63 211.84 270.477 213.66 277.757 213.66C286.77 213.66 294.657 211.493 301.417 207.16C308.177 202.653 312.424 196.327 314.157 188.18H336.517C333.917 201.18 327.33 211.753 316.757 219.9C306.184 228.047 293.27 232.12 278.017 232.12ZM367.018 229V41.8H388.858V154.38L441.638 100.04H468.418L411.218 158.28L475.698 229H447.878L388.858 162.18V229H367.018ZM546.619 232.12C534.313 232.12 523.393 229.347 513.859 223.8C504.326 218.08 496.786 210.193 491.239 200.14C485.866 190.087 483.179 178.213 483.179 164.52C483.179 151 485.866 139.213 491.239 129.16C496.613 118.933 504.066 111.047 513.599 105.5C523.306 99.78 534.486 96.92 547.139 96.92C559.619 96.92 570.366 99.78 579.379 105.5C588.566 111.047 595.586 118.413 600.439 127.6C605.293 136.787 607.719 146.667 607.719 157.24C607.719 159.147 607.633 161.053 607.459 162.96C607.459 164.867 607.459 167.033 607.459 169.46H504.759C505.279 179.34 507.533 187.573 511.519 194.16C515.679 200.573 520.793 205.427 526.859 208.72C533.099 212.013 539.686 213.66 546.619 213.66C555.633 213.66 563.173 211.58 569.239 207.42C575.306 203.26 579.726 197.627 582.499 190.52H604.079C600.613 202.48 593.939 212.447 584.059 220.42C574.353 228.22 561.873 232.12 546.619 232.12ZM546.619 115.38C536.219 115.38 526.946 118.587 518.799 125C510.826 131.24 506.233 140.427 505.019 152.56H586.139C585.619 140.947 581.633 131.847 574.179 125.26C566.726 118.673 557.539 115.38 546.619 115.38ZM683.31 229C671.523 229 662.25 226.14 655.49 220.42C648.73 214.7 645.35 204.387 645.35 189.48V118.5H622.99V100.04H645.35L648.21 69.1H667.19V100.04H705.15V118.5H667.19V189.48C667.19 197.627 668.837 203.173 672.13 206.12C675.423 208.893 681.23 210.28 689.55 210.28H703.07V229H683.31Z" fill="#2EA0F2"/>
<path d="M165.647 243.781C166.545 241.017 170.455 241.017 171.353 243.781L178.491 265.749C178.892 266.985 180.044 267.822 181.344 267.822H204.442C207.348 267.822 208.557 271.541 206.205 273.249L187.519 286.825C186.467 287.589 186.027 288.943 186.429 290.18L193.567 312.147C194.465 314.911 191.301 317.209 188.95 315.501L170.263 301.925C169.212 301.161 167.788 301.161 166.737 301.925L148.05 315.501C145.699 317.209 142.535 314.911 143.433 312.147L150.571 290.18C150.973 288.943 150.533 287.589 149.481 286.825L130.795 273.249C128.443 271.541 129.652 267.822 132.558 267.822H155.656C156.956 267.822 158.108 266.985 158.509 265.749L165.647 243.781Z" fill="#2EA0F2"/>
<path d="M542.647 8.78116C543.545 6.01723 547.455 6.01722 548.353 8.78115L555.491 30.7487C555.892 31.9848 557.044 32.8217 558.344 32.8217H581.442C584.348 32.8217 585.557 36.5405 583.205 38.2487L564.519 51.8255C563.467 52.5894 563.027 53.9435 563.429 55.1796L570.567 77.1471C571.465 79.9111 568.301 82.2095 565.95 80.5013L547.263 66.9245C546.212 66.1606 544.788 66.1606 543.737 66.9245L525.05 80.5013C522.699 82.2095 519.535 79.9111 520.433 77.1472L527.571 55.1796C527.973 53.9435 527.533 52.5894 526.481 51.8255L507.795 38.2487C505.443 36.5405 506.652 32.8217 509.558 32.8217H532.656C533.956 32.8217 535.108 31.9848 535.509 30.7487L542.647 8.78116Z" fill="#2EA0F2"/>
</svg>
