<svg width="257" height="255" viewBox="0 0 257 255" fill="none" xmlns="http://www.w3.org/2000/svg">
<path d="M208.823 103.579C208.823 126.436 201.343 147.55 188.744 164.68L252.294 227.773C258.569 233.998 258.569 244.107 252.294 250.331C246.019 256.556 235.829 256.556 229.554 250.331L166.004 187.238C148.736 199.787 127.452 207.157 104.411 207.157C46.7341 207.157 0 160.796 0 103.579C0 46.3614 46.7341 0 104.411 0C162.089 0 208.823 46.3614 208.823 103.579ZM104.411 175.287C144.319 175.287 176.696 143.168 176.696 103.579C176.696 63.9896 144.319 31.8703 104.411 31.8703C64.5041 31.8703 32.1266 63.9896 32.1266 103.579C32.1266 143.168 64.5041 175.287 104.411 175.287Z" fill="white"/>
</svg>
