<svg width="199" height="229" viewBox="0 0 199 229" fill="none" xmlns="http://www.w3.org/2000/svg">
<g filter="url(#filter0_d_101_88)">
<path d="M99.5 110.5C129.642 110.5 154.071 85.767 154.071 55.25C154.071 24.733 129.642 0 99.5 0C69.3578 0 44.9286 24.733 44.9286 55.25C44.9286 85.767 69.3578 110.5 99.5 110.5ZM80.0163 131.219C38.0219 131.219 4 165.664 4 208.18C4 215.259 9.67031 221 16.6623 221H182.338C189.33 221 195 215.259 195 208.18C195 165.664 160.978 131.219 118.984 131.219H80.0163Z" fill="white"/>
</g>
<defs>
<filter id="filter0_d_101_88" x="0" y="0" width="199" height="229" filterUnits="userSpaceOnUse" color-interpolation-filters="sRGB">
<feFlood flood-opacity="0" result="BackgroundImageFix"/>
<feColorMatrix in="SourceAlpha" type="matrix" values="0 0 0 0 0 0 0 0 0 0 0 0 0 0 0 0 0 0 127 0" result="hardAlpha"/>
<feOffset dy="4"/>
<feGaussianBlur stdDeviation="2"/>
<feComposite in2="hardAlpha" operator="out"/>
<feColorMatrix type="matrix" values="0 0 0 0 0 0 0 0 0 0 0 0 0 0 0 0 0 0 0.25 0"/>
<feBlend mode="normal" in2="BackgroundImageFix" result="effect1_dropShadow_101_88"/>
<feBlend mode="normal" in="SourceGraphic" in2="effect1_dropShadow_101_88" result="shape"/>
</filter>
</defs>
</svg>
